# xmcd CD database file
#
# Track frame offsets:
#	150
#	22792
#	53375
#	73005
#	103583
#	120963
#	133731
#	156658
#	188050
#	213785
#	232044
#	264053
#
# Disc length: 3685 seconds
#
# Revision: 0
# Processed by: cddbd v1.5.2PL0 Copyright (c) Steve Scherf et al.
# Submitted via: CDex 1.70beta1
#
DISCID=960e630c
DTITLE=Wild Bill Davidson, Alex Welsh and his band  - Wild Bill Davidson
DYEAR=1900
DGENRE=Jazz
TTITLE0=Beale Street Blues
TTITLE1=Sugar
TTITLE2=Surf Side Samba
TTITLE3=Oh, Baby!
TTITLE4=Blue Again
TTITLE5=Love Is Just Around The Corner
TTITLE6=That's A-Plenty
TTITLE7=If I Had You
TTITLE8=Sweet Georgia Brown
TTITLE9=Blue And Broken-Hearted
TTITLE10=After You've Gone
TTITLE11=Royal Garden Blues
EXTD=
EXTT0=
EXTT1=
EXTT2=
EXTT3=
EXTT4=
EXTT5=
EXTT6=
EXTT7=
EXTT8=
EXTT9=
EXTT10=
EXTT11=
PLAYORDER=
